<?xml version="1.0" encoding="UTF-8" standalone="no"?>
<!-- Created with Inkscape (http://www.inkscape.org/) -->

<svg
   xmlns:dc="http://purl.org/dc/elements/1.1/"
   xmlns:cc="http://creativecommons.org/ns#"
   xmlns:rdf="http://www.w3.org/1999/02/22-rdf-syntax-ns#"
   xmlns:svg="http://www.w3.org/2000/svg"
   xmlns="http://www.w3.org/2000/svg"
   xmlns:sodipodi="http://sodipodi.sourceforge.net/DTD/sodipodi-0.dtd"
   xmlns:inkscape="http://www.inkscape.org/namespaces/inkscape"
   width="48"
   height="48"
   viewBox="0 0 12.7 12.7"
   version="1.1"
   id="svg8"
   inkscape:version="0.92.4 (5da689c313, 2019-01-14)"
   sodipodi:docname="logo.svg">
  <defs
     id="defs2" />
  <sodipodi:namedview
     id="base"
     pagecolor="#808080"
     bordercolor="#666666"
     borderopacity="1.0"
     inkscape:pageopacity="0"
     inkscape:pageshadow="2"
     inkscape:zoom="8"
     inkscape:cx="13.144353"
     inkscape:cy="25.454527"
     inkscape:document-units="px"
     inkscape:current-layer="layer2"
     showgrid="false"
     units="px"
     inkscape:window-width="2560"
     inkscape:window-height="1377"
     inkscape:window-x="-8"
     inkscape:window-y="-8"
     inkscape:window-maximized="1" />
  <metadata
     id="metadata5">
    <rdf:RDF>
      <cc:Work
         rdf:about="">
        <dc:format>image/svg+xml</dc:format>
        <dc:type
           rdf:resource="http://purl.org/dc/dcmitype/StillImage" />
        <dc:title></dc:title>
      </cc:Work>
    </rdf:RDF>
  </metadata>
  <g
     inkscape:label="Objects"
     inkscape:groupmode="layer"
     id="layer1"
     transform="translate(0,-284.3)"
     style="display:none"
     sodipodi:insensitive="true">
    <path
       style="fill:none;stroke:#2196f3;stroke-width:1.05833328;stroke-linecap:square;stroke-linejoin:miter;stroke-miterlimit:4;stroke-dasharray:none;stroke-opacity:1"
       d="m 1.5875,294.61875 v -7.9375 l 4.7625,3.70417 4.7625,-3.70417 v 7.9375"
       id="path912"
       inkscape:connector-curvature="0"
       sodipodi:nodetypes="ccccc" />
    <circle
       style="fill:#2196f3;fill-opacity:1;stroke-width:0.26224187"
       id="path815"
       cx="1.5875"
       cy="294.61874"
       r="1.3229166" />
    <circle
       style="fill:#2196f3;fill-opacity:1;stroke-width:0.26224187"
       id="path815-7"
       cx="1.5875"
       cy="286.68124"
       r="1.3229166" />
    <circle
       style="fill:#2196f3;fill-opacity:1;stroke-width:0.26224187"
       id="path815-1"
       cx="11.1125"
       cy="294.61874"
       r="1.3229166" />
    <circle
       style="fill:#2196f3;fill-opacity:1;stroke-width:0.26224187"
       id="path815-7-0"
       cx="11.1125"
       cy="286.68124"
       r="1.3229166" />
    <circle
       style="fill:#2196f3;fill-opacity:1;stroke-width:0.26224187"
       id="path815-7-6"
       cx="6.3499999"
       cy="290.38541"
       r="1.3229166" />
  </g>
  <g
     inkscape:groupmode="layer"
     id="layer2"
     inkscape:label="Shape"
     style="display:inline">
    <path
       style="color:#000000;font-style:normal;font-variant:normal;font-weight:normal;font-stretch:normal;font-size:medium;line-height:normal;font-family:sans-serif;font-variant-ligatures:normal;font-variant-position:normal;font-variant-caps:normal;font-variant-numeric:normal;font-variant-alternates:normal;font-feature-settings:normal;text-indent:0;text-align:start;text-decoration:none;text-decoration-line:none;text-decoration-style:solid;text-decoration-color:#000000;letter-spacing:normal;word-spacing:normal;text-transform:none;writing-mode:lr-tb;direction:ltr;text-orientation:mixed;dominant-baseline:auto;baseline-shift:baseline;text-anchor:start;white-space:normal;shape-padding:0;clip-rule:nonzero;display:inline;overflow:visible;visibility:visible;opacity:1;isolation:auto;mix-blend-mode:normal;color-interpolation:sRGB;color-interpolation-filters:linearRGB;solid-color:#000000;solid-opacity:1;vector-effect:none;fill:#2196f3;fill-opacity:1;fill-rule:nonzero;stroke:#ffffff;stroke-width:1.00000001;stroke-linecap:square;stroke-linejoin:miter;stroke-miterlimit:4;stroke-dasharray:none;stroke-dashoffset:0;stroke-opacity:1;color-rendering:auto;image-rendering:auto;shape-rendering:auto;text-rendering:auto;enable-background:accumulate"
       d="M 6,4 A 4.9999998,4.9999998 0 0 0 1,9 4.9999998,4.9999998 0 0 0 4.0019531,13.580078 V 34.421875 A 4.9999998,4.9999998 0 0 0 1,39 4.9999998,4.9999998 0 0 0 6,44 4.9999998,4.9999998 0 0 0 11,39 4.9999998,4.9999998 0 0 0 8.0019531,34.421875 V 13.574219 A 4.9999998,4.9999998 0 0 0 8.3808594,13.390625 L 19.160156,21.771484 A 4.9999998,4.9999998 0 0 0 19,23 a 4.9999998,4.9999998 0 0 0 5,5 4.9999998,4.9999998 0 0 0 5,-5 4.9999998,4.9999998 0 0 0 -0.158203,-1.232422 l 10.769531,-8.375 a 4.9999998,4.9999998 0 0 0 0.390625,0.1875 V 34.421875 A 4.9999998,4.9999998 0 0 0 37,39 a 4.9999998,4.9999998 0 0 0 5,5 4.9999998,4.9999998 0 0 0 5,-5 4.9999998,4.9999998 0 0 0 -2.996094,-4.578125 V 13.574219 A 4.9999998,4.9999998 0 0 0 47,9 4.9999998,4.9999998 0 0 0 42,4 a 4.9999998,4.9999998 0 0 0 -5,5 4.9999998,4.9999998 0 0 0 0.158203,1.230469 l -10.771484,8.375 A 4.9999998,4.9999998 0 0 0 24,18 4.9999998,4.9999998 0 0 0 21.615234,18.609375 L 10.841797,10.228516 A 4.9999998,4.9999998 0 0 0 11,9 4.9999998,4.9999998 0 0 0 6,4 Z"
       id="path912-8"
       inkscape:connector-curvature="0"
       transform="scale(0.26458333)" />
  </g>
</svg>
